<svg width="18" height="18" viewBox="0 0 18 18" fill="none" xmlns="http://www.w3.org/2000/svg">
<g clip-path="url(#clip0_93_235)">
<path d="M15.942 6.14268C15.0969 2.42415 11.8533 0.75 9.00399 0.75C9.00399 0.75 9.00399 0.75 8.99594 0.75C6.15472 0.75 2.90301 2.4161 2.05789 6.13463C1.11618 10.2878 3.6596 13.8051 5.96155 16.0185C6.81472 16.8395 7.90935 17.25 9.00399 17.25C10.0986 17.25 11.1933 16.8395 12.0384 16.0185C14.3403 13.8051 16.8837 10.2959 15.942 6.14268ZM9.00399 10.1751C7.6035 10.1751 6.46862 9.04024 6.46862 7.63976C6.46862 6.23927 7.6035 5.10439 9.00399 5.10439C10.4045 5.10439 11.5394 6.23927 11.5394 7.63976C11.5394 9.04024 10.4045 10.1751 9.00399 10.1751Z" fill="#3498DB"/>
</g>
<defs>
<clipPath id="clip0_93_235">
<rect width="18" height="18" fill="white"/>
</clipPath>
</defs>
</svg>
