<svg width="20" height="20" viewBox="0 0 20 20" fill="none" xmlns="http://www.w3.org/2000/svg">
<path d="M9.99997 12.8249C11.5601 12.8249 12.8248 11.5602 12.8248 10C12.8248 8.4399 11.5601 7.17517 9.99997 7.17517C8.43984 7.17517 7.17511 8.4399 7.17511 10C7.17511 11.5602 8.43984 12.8249 9.99997 12.8249Z" stroke="black" stroke-width="1.4" stroke-miterlimit="10" stroke-linecap="round" stroke-linejoin="round"/>
<path d="M4.35024 10H3.07906C2.29901 10 1.66663 10.6324 1.66663 11.4124V14.2373C1.66663 15.0174 2.29901 15.6497 3.07906 15.6497H16.9209C17.7009 15.6497 18.3333 15.0174 18.3333 14.2373V11.4124C18.3333 10.6324 17.7009 10 16.9209 10H15.6497M7.1751 5.10722L6.46963 3.88532M12.8248 5.10722L13.5303 3.88532M9.99996 4.3503V2.93787M4.35024 17.0622V15.6497M15.6497 17.0622V15.6497" stroke="black" stroke-width="1.4" stroke-miterlimit="10" stroke-linecap="round" stroke-linejoin="round"/>
</svg>
